<?xml version="1.0" standalone="no"?>
<svg xmlns="http://www.w3.org/2000/svg" width="2000" height="2000" viewBox="0 0 2000 2000"><defs><clipPath id="clip-path-dot-color"><rect x="109" y="541" width="54" height="54" transform="rotate(0,136,568)"/><rect x="109" y="649" width="54" height="54" transform="rotate(0,136,676)"/><rect x="109" y="811" width="54" height="54" transform="rotate(0,136,838)"/><rect x="109" y="1189" width="54" height="54" transform="rotate(0,136,1216)"/><rect x="109" y="1297" width="54" height="54" transform="rotate(0,136,1324)"/><rect x="163" y="541" width="54" height="54" transform="rotate(0,190,568)"/><rect x="163" y="595" width="54" height="54" transform="rotate(0,190,622)"/><rect x="163" y="703" width="54" height="54" transform="rotate(0,190,730)"/><rect x="163" y="811" width="54" height="54" transform="rotate(0,190,838)"/><rect x="163" y="919" width="54" height="54" transform="rotate(0,190,946)"/><rect x="163" y="1027" width="54" height="54" transform="rotate(0,190,1054)"/><rect x="163" y="1189" width="54" height="54" transform="rotate(0,190,1216)"/><rect x="163" y="1243" width="54" height="54" transform="rotate(0,190,1270)"/><rect x="163" y="1297" width="54" height="54" transform="rotate(0,190,1324)"/><rect x="163" y="1405" width="54" height="54" transform="rotate(0,190,1432)"/><rect x="217" y="649" width="54" height="54" transform="rotate(0,244,676)"/><rect x="217" y="703" width="54" height="54" transform="rotate(0,244,730)"/><rect x="217" y="757" width="54" height="54" transform="rotate(0,244,784)"/><rect x="217" y="973" width="54" height="54" transform="rotate(0,244,1000)"/><rect x="217" y="1027" width="54" height="54" transform="rotate(0,244,1054)"/><rect x="217" y="1081" width="54" height="54" transform="rotate(0,244,1108)"/><rect x="217" y="1135" width="54" height="54" transform="rotate(0,244,1162)"/><rect x="217" y="1189" width="54" height="54" transform="rotate(0,244,1216)"/><rect x="217" y="1243" width="54" height="54" transform="rotate(0,244,1270)"/><rect x="217" y="1351" width="54" height="54" transform="rotate(0,244,1378)"/><rect x="271" y="703" width="54" height="54" transform="rotate(0,298,730)"/><rect x="271" y="757" width="54" height="54" transform="rotate(0,298,784)"/><rect x="271" y="865" width="54" height="54" transform="rotate(0,298,892)"/><rect x="271" y="1243" width="54" height="54" transform="rotate(0,298,1270)"/><rect x="271" y="1405" width="54" height="54" transform="rotate(0,298,1432)"/><rect x="325" y="595" width="54" height="54" transform="rotate(0,352,622)"/><rect x="325" y="649" width="54" height="54" transform="rotate(0,352,676)"/><rect x="325" y="865" width="54" height="54" transform="rotate(0,352,892)"/><rect x="325" y="919" width="54" height="54" transform="rotate(0,352,946)"/><rect x="325" y="973" width="54" height="54" transform="rotate(0,352,1000)"/><rect x="325" y="1081" width="54" height="54" transform="rotate(0,352,1108)"/><rect x="325" y="1243" width="54" height="54" transform="rotate(0,352,1270)"/><rect x="325" y="1297" width="54" height="54" transform="rotate(0,352,1324)"/><rect x="325" y="1351" width="54" height="54" transform="rotate(0,352,1378)"/><rect x="379" y="595" width="54" height="54" transform="rotate(0,406,622)"/><rect x="379" y="649" width="54" height="54" transform="rotate(0,406,676)"/><rect x="379" y="757" width="54" height="54" transform="rotate(0,406,784)"/><rect x="379" y="811" width="54" height="54" transform="rotate(0,406,838)"/><rect x="379" y="919" width="54" height="54" transform="rotate(0,406,946)"/><rect x="379" y="1189" width="54" height="54" transform="rotate(0,406,1216)"/><rect x="379" y="1405" width="54" height="54" transform="rotate(0,406,1432)"/><rect x="433" y="541" width="54" height="54" transform="rotate(0,460,568)"/><rect x="433" y="649" width="54" height="54" transform="rotate(0,460,676)"/><rect x="433" y="757" width="54" height="54" transform="rotate(0,460,784)"/><rect x="433" y="865" width="54" height="54" transform="rotate(0,460,892)"/><rect x="433" y="973" width="54" height="54" transform="rotate(0,460,1000)"/><rect x="433" y="1081" width="54" height="54" transform="rotate(0,460,1108)"/><rect x="433" y="1189" width="54" height="54" transform="rotate(0,460,1216)"/><rect x="433" y="1297" width="54" height="54" transform="rotate(0,460,1324)"/><rect x="433" y="1405" width="54" height="54" transform="rotate(0,460,1432)"/><rect x="487" y="703" width="54" height="54" transform="rotate(0,514,730)"/><rect x="487" y="1081" width="54" height="54" transform="rotate(0,514,1108)"/><rect x="487" y="1297" width="54" height="54" transform="rotate(0,514,1324)"/><rect x="487" y="1351" width="54" height="54" transform="rotate(0,514,1378)"/><rect x="541" y="163" width="54" height="54" transform="rotate(0,568,190)"/><rect x="541" y="433" width="54" height="54" transform="rotate(0,568,460)"/><rect x="541" y="487" width="54" height="54" transform="rotate(0,568,514)"/><rect x="541" y="541" width="54" height="54" transform="rotate(0,568,568)"/><rect x="541" y="649" width="54" height="54" transform="rotate(0,568,676)"/><rect x="541" y="757" width="54" height="54" transform="rotate(0,568,784)"/><rect x="541" y="919" width="54" height="54" transform="rotate(0,568,946)"/><rect x="541" y="973" width="54" height="54" transform="rotate(0,568,1000)"/><rect x="541" y="1027" width="54" height="54" transform="rotate(0,568,1054)"/><rect x="541" y="1081" width="54" height="54" transform="rotate(0,568,1108)"/><rect x="541" y="1297" width="54" height="54" transform="rotate(0,568,1324)"/><rect x="541" y="1459" width="54" height="54" transform="rotate(0,568,1486)"/><rect x="541" y="1783" width="54" height="54" transform="rotate(0,568,1810)"/><rect x="541" y="1837" width="54" height="54" transform="rotate(0,568,1864)"/><rect x="595" y="217" width="54" height="54" transform="rotate(0,622,244)"/><rect x="595" y="271" width="54" height="54" transform="rotate(0,622,298)"/><rect x="595" y="487" width="54" height="54" transform="rotate(0,622,514)"/><rect x="595" y="649" width="54" height="54" transform="rotate(0,622,676)"/><rect x="595" y="811" width="54" height="54" transform="rotate(0,622,838)"/><rect x="595" y="1135" width="54" height="54" transform="rotate(0,622,1162)"/><rect x="595" y="1243" width="54" height="54" transform="rotate(0,622,1270)"/><rect x="595" y="1351" width="54" height="54" transform="rotate(0,622,1378)"/><rect x="595" y="1459" width="54" height="54" transform="rotate(0,622,1486)"/><rect x="595" y="1567" width="54" height="54" transform="rotate(0,622,1594)"/><rect x="595" y="1621" width="54" height="54" transform="rotate(0,622,1648)"/><rect x="595" y="1729" width="54" height="54" transform="rotate(0,622,1756)"/><rect x="595" y="1783" width="54" height="54" transform="rotate(0,622,1810)"/><rect x="649" y="163" width="54" height="54" transform="rotate(0,676,190)"/><rect x="649" y="217" width="54" height="54" transform="rotate(0,676,244)"/><rect x="649" y="271" width="54" height="54" transform="rotate(0,676,298)"/><rect x="649" y="325" width="54" height="54" transform="rotate(0,676,352)"/><rect x="649" y="433" width="54" height="54" transform="rotate(0,676,460)"/><rect x="649" y="487" width="54" height="54" transform="rotate(0,676,514)"/><rect x="649" y="595" width="54" height="54" transform="rotate(0,676,622)"/><rect x="649" y="649" width="54" height="54" transform="rotate(0,676,676)"/><rect x="649" y="811" width="54" height="54" transform="rotate(0,676,838)"/><rect x="649" y="919" width="54" height="54" transform="rotate(0,676,946)"/><rect x="649" y="973" width="54" height="54" transform="rotate(0,676,1000)"/><rect x="649" y="1081" width="54" height="54" transform="rotate(0,676,1108)"/><rect x="649" y="1405" width="54" height="54" transform="rotate(0,676,1432)"/><rect x="649" y="1513" width="54" height="54" transform="rotate(0,676,1540)"/><rect x="649" y="1567" width="54" height="54" transform="rotate(0,676,1594)"/><rect x="649" y="1621" width="54" height="54" transform="rotate(0,676,1648)"/><rect x="649" y="1675" width="54" height="54" transform="rotate(0,676,1702)"/><rect x="703" y="163" width="54" height="54" transform="rotate(0,730,190)"/><rect x="703" y="325" width="54" height="54" transform="rotate(0,730,352)"/><rect x="703" y="379" width="54" height="54" transform="rotate(0,730,406)"/><rect x="703" y="487" width="54" height="54" transform="rotate(0,730,514)"/><rect x="703" y="541" width="54" height="54" transform="rotate(0,730,568)"/><rect x="703" y="703" width="54" height="54" transform="rotate(0,730,730)"/><rect x="703" y="811" width="54" height="54" transform="rotate(0,730,838)"/><rect x="703" y="919" width="54" height="54" transform="rotate(0,730,946)"/><rect x="703" y="1189" width="54" height="54" transform="rotate(0,730,1216)"/><rect x="703" y="1405" width="54" height="54" transform="rotate(0,730,1432)"/><rect x="703" y="1459" width="54" height="54" transform="rotate(0,730,1486)"/><rect x="703" y="1621" width="54" height="54" transform="rotate(0,730,1648)"/><rect x="703" y="1729" width="54" height="54" transform="rotate(0,730,1756)"/><rect x="703" y="1837" width="54" height="54" transform="rotate(0,730,1864)"/><rect x="757" y="109" width="54" height="54" transform="rotate(0,784,136)"/><rect x="757" y="433" width="54" height="54" transform="rotate(0,784,460)"/><rect x="757" y="487" width="54" height="54" transform="rotate(0,784,514)"/><rect x="757" y="541" width="54" height="54" transform="rotate(0,784,568)"/><rect x="757" y="649" width="54" height="54" transform="rotate(0,784,676)"/><rect x="757" y="757" width="54" height="54" transform="rotate(0,784,784)"/><rect x="757" y="919" width="54" height="54" transform="rotate(0,784,946)"/><rect x="757" y="1027" width="54" height="54" transform="rotate(0,784,1054)"/><rect x="757" y="1081" width="54" height="54" transform="rotate(0,784,1108)"/><rect x="757" y="1135" width="54" height="54" transform="rotate(0,784,1162)"/><rect x="757" y="1189" width="54" height="54" transform="rotate(0,784,1216)"/><rect x="757" y="1513" width="54" height="54" transform="rotate(0,784,1540)"/><rect x="757" y="1837" width="54" height="54" transform="rotate(0,784,1864)"/><rect x="811" y="109" width="54" height="54" transform="rotate(0,838,136)"/><rect x="811" y="217" width="54" height="54" transform="rotate(0,838,244)"/><rect x="811" y="271" width="54" height="54" transform="rotate(0,838,298)"/><rect x="811" y="379" width="54" height="54" transform="rotate(0,838,406)"/><rect x="811" y="541" width="54" height="54" transform="rotate(0,838,568)"/><rect x="811" y="649" width="54" height="54" transform="rotate(0,838,676)"/><rect x="811" y="703" width="54" height="54" transform="rotate(0,838,730)"/><rect x="811" y="919" width="54" height="54" transform="rotate(0,838,946)"/><rect x="811" y="1189" width="54" height="54" transform="rotate(0,838,1216)"/><rect x="811" y="1243" width="54" height="54" transform="rotate(0,838,1270)"/><rect x="811" y="1297" width="54" height="54" transform="rotate(0,838,1324)"/><rect x="811" y="1351" width="54" height="54" transform="rotate(0,838,1378)"/><rect x="811" y="1405" width="54" height="54" transform="rotate(0,838,1432)"/><rect x="811" y="1513" width="54" height="54" transform="rotate(0,838,1540)"/><rect x="811" y="1675" width="54" height="54" transform="rotate(0,838,1702)"/><rect x="811" y="1729" width="54" height="54" transform="rotate(0,838,1756)"/><rect x="811" y="1837" width="54" height="54" transform="rotate(0,838,1864)"/><rect x="865" y="109" width="54" height="54" transform="rotate(0,892,136)"/><rect x="865" y="325" width="54" height="54" transform="rotate(0,892,352)"/><rect x="865" y="379" width="54" height="54" transform="rotate(0,892,406)"/><rect x="865" y="433" width="54" height="54" transform="rotate(0,892,460)"/><rect x="865" y="541" width="54" height="54" transform="rotate(0,892,568)"/><rect x="865" y="595" width="54" height="54" transform="rotate(0,892,622)"/><rect x="865" y="649" width="54" height="54" transform="rotate(0,892,676)"/><rect x="865" y="811" width="54" height="54" transform="rotate(0,892,838)"/><rect x="865" y="1081" width="54" height="54" transform="rotate(0,892,1108)"/><rect x="865" y="1135" width="54" height="54" transform="rotate(0,892,1162)"/><rect x="865" y="1405" width="54" height="54" transform="rotate(0,892,1432)"/><rect x="865" y="1459" width="54" height="54" transform="rotate(0,892,1486)"/><rect x="865" y="1567" width="54" height="54" transform="rotate(0,892,1594)"/><rect x="865" y="1675" width="54" height="54" transform="rotate(0,892,1702)"/><rect x="865" y="1783" width="54" height="54" transform="rotate(0,892,1810)"/><rect x="919" y="109" width="54" height="54" transform="rotate(0,946,136)"/><rect x="919" y="271" width="54" height="54" transform="rotate(0,946,298)"/><rect x="919" y="325" width="54" height="54" transform="rotate(0,946,352)"/><rect x="919" y="379" width="54" height="54" transform="rotate(0,946,406)"/><rect x="919" y="541" width="54" height="54" transform="rotate(0,946,568)"/><rect x="919" y="649" width="54" height="54" transform="rotate(0,946,676)"/><rect x="919" y="757" width="54" height="54" transform="rotate(0,946,784)"/><rect x="919" y="811" width="54" height="54" transform="rotate(0,946,838)"/><rect x="919" y="919" width="54" height="54" transform="rotate(0,946,946)"/><rect x="919" y="1135" width="54" height="54" transform="rotate(0,946,1162)"/><rect x="919" y="1297" width="54" height="54" transform="rotate(0,946,1324)"/><rect x="919" y="1351" width="54" height="54" transform="rotate(0,946,1378)"/><rect x="919" y="1675" width="54" height="54" transform="rotate(0,946,1702)"/><rect x="919" y="1729" width="54" height="54" transform="rotate(0,946,1756)"/><rect x="973" y="109" width="54" height="54" transform="rotate(0,1000,136)"/><rect x="973" y="163" width="54" height="54" transform="rotate(0,1000,190)"/><rect x="973" y="379" width="54" height="54" transform="rotate(0,1000,406)"/><rect x="973" y="433" width="54" height="54" transform="rotate(0,1000,460)"/><rect x="973" y="649" width="54" height="54" transform="rotate(0,1000,676)"/><rect x="973" y="703" width="54" height="54" transform="rotate(0,1000,730)"/><rect x="973" y="811" width="54" height="54" transform="rotate(0,1000,838)"/><rect x="973" y="919" width="54" height="54" transform="rotate(0,1000,946)"/><rect x="973" y="1081" width="54" height="54" transform="rotate(0,1000,1108)"/><rect x="973" y="1135" width="54" height="54" transform="rotate(0,1000,1162)"/><rect x="973" y="1189" width="54" height="54" transform="rotate(0,1000,1216)"/><rect x="973" y="1297" width="54" height="54" transform="rotate(0,1000,1324)"/><rect x="973" y="1459" width="54" height="54" transform="rotate(0,1000,1486)"/><rect x="973" y="1567" width="54" height="54" transform="rotate(0,1000,1594)"/><rect x="973" y="1621" width="54" height="54" transform="rotate(0,1000,1648)"/><rect x="973" y="1675" width="54" height="54" transform="rotate(0,1000,1702)"/><rect x="1027" y="109" width="54" height="54" transform="rotate(0,1054,136)"/><rect x="1027" y="163" width="54" height="54" transform="rotate(0,1054,190)"/><rect x="1027" y="271" width="54" height="54" transform="rotate(0,1054,298)"/><rect x="1027" y="541" width="54" height="54" transform="rotate(0,1054,568)"/><rect x="1027" y="649" width="54" height="54" transform="rotate(0,1054,676)"/><rect x="1027" y="703" width="54" height="54" transform="rotate(0,1054,730)"/><rect x="1027" y="757" width="54" height="54" transform="rotate(0,1054,784)"/><rect x="1027" y="811" width="54" height="54" transform="rotate(0,1054,838)"/><rect x="1027" y="919" width="54" height="54" transform="rotate(0,1054,946)"/><rect x="1027" y="973" width="54" height="54" transform="rotate(0,1054,1000)"/><rect x="1027" y="1027" width="54" height="54" transform="rotate(0,1054,1054)"/><rect x="1027" y="1081" width="54" height="54" transform="rotate(0,1054,1108)"/><rect x="1027" y="1135" width="54" height="54" transform="rotate(0,1054,1162)"/><rect x="1027" y="1243" width="54" height="54" transform="rotate(0,1054,1270)"/><rect x="1027" y="1351" width="54" height="54" transform="rotate(0,1054,1378)"/><rect x="1027" y="1513" width="54" height="54" transform="rotate(0,1054,1540)"/><rect x="1027" y="1567" width="54" height="54" transform="rotate(0,1054,1594)"/><rect x="1027" y="1729" width="54" height="54" transform="rotate(0,1054,1756)"/><rect x="1027" y="1783" width="54" height="54" transform="rotate(0,1054,1810)"/><rect x="1027" y="1837" width="54" height="54" transform="rotate(0,1054,1864)"/><rect x="1081" y="217" width="54" height="54" transform="rotate(0,1108,244)"/><rect x="1081" y="325" width="54" height="54" transform="rotate(0,1108,352)"/><rect x="1081" y="433" width="54" height="54" transform="rotate(0,1108,460)"/><rect x="1081" y="703" width="54" height="54" transform="rotate(0,1108,730)"/><rect x="1081" y="757" width="54" height="54" transform="rotate(0,1108,784)"/><rect x="1081" y="811" width="54" height="54" transform="rotate(0,1108,838)"/><rect x="1081" y="919" width="54" height="54" transform="rotate(0,1108,946)"/><rect x="1081" y="973" width="54" height="54" transform="rotate(0,1108,1000)"/><rect x="1081" y="1027" width="54" height="54" transform="rotate(0,1108,1054)"/><rect x="1081" y="1081" width="54" height="54" transform="rotate(0,1108,1108)"/><rect x="1081" y="1135" width="54" height="54" transform="rotate(0,1108,1162)"/><rect x="1081" y="1297" width="54" height="54" transform="rotate(0,1108,1324)"/><rect x="1081" y="1351" width="54" height="54" transform="rotate(0,1108,1378)"/><rect x="1081" y="1405" width="54" height="54" transform="rotate(0,1108,1432)"/><rect x="1081" y="1567" width="54" height="54" transform="rotate(0,1108,1594)"/><rect x="1081" y="1729" width="54" height="54" transform="rotate(0,1108,1756)"/><rect x="1081" y="1783" width="54" height="54" transform="rotate(0,1108,1810)"/><rect x="1081" y="1837" width="54" height="54" transform="rotate(0,1108,1864)"/><rect x="1135" y="109" width="54" height="54" transform="rotate(0,1162,136)"/><rect x="1135" y="271" width="54" height="54" transform="rotate(0,1162,298)"/><rect x="1135" y="379" width="54" height="54" transform="rotate(0,1162,406)"/><rect x="1135" y="595" width="54" height="54" transform="rotate(0,1162,622)"/><rect x="1135" y="811" width="54" height="54" transform="rotate(0,1162,838)"/><rect x="1135" y="919" width="54" height="54" transform="rotate(0,1162,946)"/><rect x="1135" y="1027" width="54" height="54" transform="rotate(0,1162,1054)"/><rect x="1135" y="1081" width="54" height="54" transform="rotate(0,1162,1108)"/><rect x="1135" y="1189" width="54" height="54" transform="rotate(0,1162,1216)"/><rect x="1135" y="1351" width="54" height="54" transform="rotate(0,1162,1378)"/><rect x="1135" y="1405" width="54" height="54" transform="rotate(0,1162,1432)"/><rect x="1135" y="1513" width="54" height="54" transform="rotate(0,1162,1540)"/><rect x="1135" y="1567" width="54" height="54" transform="rotate(0,1162,1594)"/><rect x="1135" y="1621" width="54" height="54" transform="rotate(0,1162,1648)"/><rect x="1135" y="1675" width="54" height="54" transform="rotate(0,1162,1702)"/><rect x="1135" y="1729" width="54" height="54" transform="rotate(0,1162,1756)"/><rect x="1135" y="1837" width="54" height="54" transform="rotate(0,1162,1864)"/><rect x="1189" y="109" width="54" height="54" transform="rotate(0,1216,136)"/><rect x="1189" y="217" width="54" height="54" transform="rotate(0,1216,244)"/><rect x="1189" y="433" width="54" height="54" transform="rotate(0,1216,460)"/><rect x="1189" y="487" width="54" height="54" transform="rotate(0,1216,514)"/><rect x="1189" y="541" width="54" height="54" transform="rotate(0,1216,568)"/><rect x="1189" y="595" width="54" height="54" transform="rotate(0,1216,622)"/><rect x="1189" y="649" width="54" height="54" transform="rotate(0,1216,676)"/><rect x="1189" y="703" width="54" height="54" transform="rotate(0,1216,730)"/><rect x="1189" y="757" width="54" height="54" transform="rotate(0,1216,784)"/><rect x="1189" y="1027" width="54" height="54" transform="rotate(0,1216,1054)"/><rect x="1189" y="1297" width="54" height="54" transform="rotate(0,1216,1324)"/><rect x="1189" y="1351" width="54" height="54" transform="rotate(0,1216,1378)"/><rect x="1189" y="1459" width="54" height="54" transform="rotate(0,1216,1486)"/><rect x="1189" y="1621" width="54" height="54" transform="rotate(0,1216,1648)"/><rect x="1189" y="1675" width="54" height="54" transform="rotate(0,1216,1702)"/><rect x="1243" y="109" width="54" height="54" transform="rotate(0,1270,136)"/><rect x="1243" y="217" width="54" height="54" transform="rotate(0,1270,244)"/><rect x="1243" y="325" width="54" height="54" transform="rotate(0,1270,352)"/><rect x="1243" y="541" width="54" height="54" transform="rotate(0,1270,568)"/><rect x="1243" y="595" width="54" height="54" transform="rotate(0,1270,622)"/><rect x="1243" y="757" width="54" height="54" transform="rotate(0,1270,784)"/><rect x="1243" y="811" width="54" height="54" transform="rotate(0,1270,838)"/><rect x="1243" y="973" width="54" height="54" transform="rotate(0,1270,1000)"/><rect x="1243" y="1081" width="54" height="54" transform="rotate(0,1270,1108)"/><rect x="1243" y="1189" width="54" height="54" transform="rotate(0,1270,1216)"/><rect x="1243" y="1243" width="54" height="54" transform="rotate(0,1270,1270)"/><rect x="1243" y="1351" width="54" height="54" transform="rotate(0,1270,1378)"/><rect x="1243" y="1459" width="54" height="54" transform="rotate(0,1270,1486)"/><rect x="1243" y="1621" width="54" height="54" transform="rotate(0,1270,1648)"/><rect x="1243" y="1729" width="54" height="54" transform="rotate(0,1270,1756)"/><rect x="1297" y="109" width="54" height="54" transform="rotate(0,1324,136)"/><rect x="1297" y="217" width="54" height="54" transform="rotate(0,1324,244)"/><rect x="1297" y="271" width="54" height="54" transform="rotate(0,1324,298)"/><rect x="1297" y="379" width="54" height="54" transform="rotate(0,1324,406)"/><rect x="1297" y="433" width="54" height="54" transform="rotate(0,1324,460)"/><rect x="1297" y="487" width="54" height="54" transform="rotate(0,1324,514)"/><rect x="1297" y="649" width="54" height="54" transform="rotate(0,1324,676)"/><rect x="1297" y="703" width="54" height="54" transform="rotate(0,1324,730)"/><rect x="1297" y="865" width="54" height="54" transform="rotate(0,1324,892)"/><rect x="1297" y="919" width="54" height="54" transform="rotate(0,1324,946)"/><rect x="1297" y="1027" width="54" height="54" transform="rotate(0,1324,1054)"/><rect x="1297" y="1513" width="54" height="54" transform="rotate(0,1324,1540)"/><rect x="1297" y="1567" width="54" height="54" transform="rotate(0,1324,1594)"/><rect x="1297" y="1621" width="54" height="54" transform="rotate(0,1324,1648)"/><rect x="1297" y="1675" width="54" height="54" transform="rotate(0,1324,1702)"/><rect x="1297" y="1783" width="54" height="54" transform="rotate(0,1324,1810)"/><rect x="1351" y="109" width="54" height="54" transform="rotate(0,1378,136)"/><rect x="1351" y="217" width="54" height="54" transform="rotate(0,1378,244)"/><rect x="1351" y="325" width="54" height="54" transform="rotate(0,1378,352)"/><rect x="1351" y="595" width="54" height="54" transform="rotate(0,1378,622)"/><rect x="1351" y="703" width="54" height="54" transform="rotate(0,1378,730)"/><rect x="1351" y="757" width="54" height="54" transform="rotate(0,1378,784)"/><rect x="1351" y="865" width="54" height="54" transform="rotate(0,1378,892)"/><rect x="1351" y="919" width="54" height="54" transform="rotate(0,1378,946)"/><rect x="1351" y="973" width="54" height="54" transform="rotate(0,1378,1000)"/><rect x="1351" y="1027" width="54" height="54" transform="rotate(0,1378,1054)"/><rect x="1351" y="1081" width="54" height="54" transform="rotate(0,1378,1108)"/><rect x="1351" y="1135" width="54" height="54" transform="rotate(0,1378,1162)"/><rect x="1351" y="1189" width="54" height="54" transform="rotate(0,1378,1216)"/><rect x="1351" y="1297" width="54" height="54" transform="rotate(0,1378,1324)"/><rect x="1351" y="1351" width="54" height="54" transform="rotate(0,1378,1378)"/><rect x="1351" y="1405" width="54" height="54" transform="rotate(0,1378,1432)"/><rect x="1351" y="1513" width="54" height="54" transform="rotate(0,1378,1540)"/><rect x="1351" y="1567" width="54" height="54" transform="rotate(0,1378,1594)"/><rect x="1351" y="1675" width="54" height="54" transform="rotate(0,1378,1702)"/><rect x="1351" y="1729" width="54" height="54" transform="rotate(0,1378,1756)"/><rect x="1351" y="1837" width="54" height="54" transform="rotate(0,1378,1864)"/><rect x="1405" y="109" width="54" height="54" transform="rotate(0,1432,136)"/><rect x="1405" y="163" width="54" height="54" transform="rotate(0,1432,190)"/><rect x="1405" y="325" width="54" height="54" transform="rotate(0,1432,352)"/><rect x="1405" y="433" width="54" height="54" transform="rotate(0,1432,460)"/><rect x="1405" y="703" width="54" height="54" transform="rotate(0,1432,730)"/><rect x="1405" y="811" width="54" height="54" transform="rotate(0,1432,838)"/><rect x="1405" y="865" width="54" height="54" transform="rotate(0,1432,892)"/><rect x="1405" y="1081" width="54" height="54" transform="rotate(0,1432,1108)"/><rect x="1405" y="1135" width="54" height="54" transform="rotate(0,1432,1162)"/><rect x="1405" y="1405" width="54" height="54" transform="rotate(0,1432,1432)"/><rect x="1405" y="1459" width="54" height="54" transform="rotate(0,1432,1486)"/><rect x="1405" y="1513" width="54" height="54" transform="rotate(0,1432,1540)"/><rect x="1405" y="1567" width="54" height="54" transform="rotate(0,1432,1594)"/><rect x="1405" y="1621" width="54" height="54" transform="rotate(0,1432,1648)"/><rect x="1405" y="1783" width="54" height="54" transform="rotate(0,1432,1810)"/><rect x="1459" y="541" width="54" height="54" transform="rotate(0,1486,568)"/><rect x="1459" y="595" width="54" height="54" transform="rotate(0,1486,622)"/><rect x="1459" y="703" width="54" height="54" transform="rotate(0,1486,730)"/><rect x="1459" y="757" width="54" height="54" transform="rotate(0,1486,784)"/><rect x="1459" y="865" width="54" height="54" transform="rotate(0,1486,892)"/><rect x="1459" y="973" width="54" height="54" transform="rotate(0,1486,1000)"/><rect x="1459" y="1027" width="54" height="54" transform="rotate(0,1486,1054)"/><rect x="1459" y="1135" width="54" height="54" transform="rotate(0,1486,1162)"/><rect x="1459" y="1189" width="54" height="54" transform="rotate(0,1486,1216)"/><rect x="1459" y="1297" width="54" height="54" transform="rotate(0,1486,1324)"/><rect x="1459" y="1351" width="54" height="54" transform="rotate(0,1486,1378)"/><rect x="1459" y="1405" width="54" height="54" transform="rotate(0,1486,1432)"/><rect x="1459" y="1621" width="54" height="54" transform="rotate(0,1486,1648)"/><rect x="1459" y="1729" width="54" height="54" transform="rotate(0,1486,1756)"/><rect x="1459" y="1783" width="54" height="54" transform="rotate(0,1486,1810)"/><rect x="1459" y="1837" width="54" height="54" transform="rotate(0,1486,1864)"/><rect x="1513" y="541" width="54" height="54" transform="rotate(0,1540,568)"/><rect x="1513" y="703" width="54" height="54" transform="rotate(0,1540,730)"/><rect x="1513" y="757" width="54" height="54" transform="rotate(0,1540,784)"/><rect x="1513" y="865" width="54" height="54" transform="rotate(0,1540,892)"/><rect x="1513" y="1027" width="54" height="54" transform="rotate(0,1540,1054)"/><rect x="1513" y="1081" width="54" height="54" transform="rotate(0,1540,1108)"/><rect x="1513" y="1189" width="54" height="54" transform="rotate(0,1540,1216)"/><rect x="1513" y="1243" width="54" height="54" transform="rotate(0,1540,1270)"/><rect x="1513" y="1351" width="54" height="54" transform="rotate(0,1540,1378)"/><rect x="1513" y="1405" width="54" height="54" transform="rotate(0,1540,1432)"/><rect x="1513" y="1513" width="54" height="54" transform="rotate(0,1540,1540)"/><rect x="1513" y="1621" width="54" height="54" transform="rotate(0,1540,1648)"/><rect x="1513" y="1675" width="54" height="54" transform="rotate(0,1540,1702)"/><rect x="1513" y="1729" width="54" height="54" transform="rotate(0,1540,1756)"/><rect x="1513" y="1783" width="54" height="54" transform="rotate(0,1540,1810)"/><rect x="1567" y="649" width="54" height="54" transform="rotate(0,1594,676)"/><rect x="1567" y="703" width="54" height="54" transform="rotate(0,1594,730)"/><rect x="1567" y="757" width="54" height="54" transform="rotate(0,1594,784)"/><rect x="1567" y="865" width="54" height="54" transform="rotate(0,1594,892)"/><rect x="1567" y="919" width="54" height="54" transform="rotate(0,1594,946)"/><rect x="1567" y="1027" width="54" height="54" transform="rotate(0,1594,1054)"/><rect x="1567" y="1351" width="54" height="54" transform="rotate(0,1594,1378)"/><rect x="1567" y="1405" width="54" height="54" transform="rotate(0,1594,1432)"/><rect x="1567" y="1621" width="54" height="54" transform="rotate(0,1594,1648)"/><rect x="1567" y="1675" width="54" height="54" transform="rotate(0,1594,1702)"/><rect x="1567" y="1729" width="54" height="54" transform="rotate(0,1594,1756)"/><rect x="1567" y="1837" width="54" height="54" transform="rotate(0,1594,1864)"/><rect x="1621" y="649" width="54" height="54" transform="rotate(0,1648,676)"/><rect x="1621" y="703" width="54" height="54" transform="rotate(0,1648,730)"/><rect x="1621" y="757" width="54" height="54" transform="rotate(0,1648,784)"/><rect x="1621" y="919" width="54" height="54" transform="rotate(0,1648,946)"/><rect x="1621" y="973" width="54" height="54" transform="rotate(0,1648,1000)"/><rect x="1621" y="1027" width="54" height="54" transform="rotate(0,1648,1054)"/><rect x="1621" y="1081" width="54" height="54" transform="rotate(0,1648,1108)"/><rect x="1621" y="1135" width="54" height="54" transform="rotate(0,1648,1162)"/><rect x="1621" y="1297" width="54" height="54" transform="rotate(0,1648,1324)"/><rect x="1621" y="1405" width="54" height="54" transform="rotate(0,1648,1432)"/><rect x="1621" y="1459" width="54" height="54" transform="rotate(0,1648,1486)"/><rect x="1621" y="1513" width="54" height="54" transform="rotate(0,1648,1540)"/><rect x="1621" y="1567" width="54" height="54" transform="rotate(0,1648,1594)"/><rect x="1621" y="1621" width="54" height="54" transform="rotate(0,1648,1648)"/><rect x="1621" y="1675" width="54" height="54" transform="rotate(0,1648,1702)"/><rect x="1675" y="757" width="54" height="54" transform="rotate(0,1702,784)"/><rect x="1675" y="811" width="54" height="54" transform="rotate(0,1702,838)"/><rect x="1675" y="865" width="54" height="54" transform="rotate(0,1702,892)"/><rect x="1675" y="973" width="54" height="54" transform="rotate(0,1702,1000)"/><rect x="1675" y="1081" width="54" height="54" transform="rotate(0,1702,1108)"/><rect x="1675" y="1135" width="54" height="54" transform="rotate(0,1702,1162)"/><rect x="1675" y="1189" width="54" height="54" transform="rotate(0,1702,1216)"/><rect x="1675" y="1297" width="54" height="54" transform="rotate(0,1702,1324)"/><rect x="1675" y="1405" width="54" height="54" transform="rotate(0,1702,1432)"/><rect x="1675" y="1459" width="54" height="54" transform="rotate(0,1702,1486)"/><rect x="1675" y="1621" width="54" height="54" transform="rotate(0,1702,1648)"/><rect x="1675" y="1837" width="54" height="54" transform="rotate(0,1702,1864)"/><rect x="1729" y="595" width="54" height="54" transform="rotate(0,1756,622)"/><rect x="1729" y="649" width="54" height="54" transform="rotate(0,1756,676)"/><rect x="1729" y="757" width="54" height="54" transform="rotate(0,1756,784)"/><rect x="1729" y="919" width="54" height="54" transform="rotate(0,1756,946)"/><rect x="1729" y="1027" width="54" height="54" transform="rotate(0,1756,1054)"/><rect x="1729" y="1081" width="54" height="54" transform="rotate(0,1756,1108)"/><rect x="1729" y="1135" width="54" height="54" transform="rotate(0,1756,1162)"/><rect x="1729" y="1351" width="54" height="54" transform="rotate(0,1756,1378)"/><rect x="1729" y="1621" width="54" height="54" transform="rotate(0,1756,1648)"/><rect x="1729" y="1675" width="54" height="54" transform="rotate(0,1756,1702)"/><rect x="1729" y="1783" width="54" height="54" transform="rotate(0,1756,1810)"/><rect x="1729" y="1837" width="54" height="54" transform="rotate(0,1756,1864)"/><rect x="1783" y="541" width="54" height="54" transform="rotate(0,1810,568)"/><rect x="1783" y="757" width="54" height="54" transform="rotate(0,1810,784)"/><rect x="1783" y="865" width="54" height="54" transform="rotate(0,1810,892)"/><rect x="1783" y="919" width="54" height="54" transform="rotate(0,1810,946)"/><rect x="1783" y="1027" width="54" height="54" transform="rotate(0,1810,1054)"/><rect x="1783" y="1081" width="54" height="54" transform="rotate(0,1810,1108)"/><rect x="1783" y="1297" width="54" height="54" transform="rotate(0,1810,1324)"/><rect x="1783" y="1459" width="54" height="54" transform="rotate(0,1810,1486)"/><rect x="1783" y="1567" width="54" height="54" transform="rotate(0,1810,1594)"/><rect x="1783" y="1729" width="54" height="54" transform="rotate(0,1810,1756)"/><rect x="1837" y="595" width="54" height="54" transform="rotate(0,1864,622)"/><rect x="1837" y="757" width="54" height="54" transform="rotate(0,1864,784)"/><rect x="1837" y="811" width="54" height="54" transform="rotate(0,1864,838)"/><rect x="1837" y="919" width="54" height="54" transform="rotate(0,1864,946)"/><rect x="1837" y="973" width="54" height="54" transform="rotate(0,1864,1000)"/><rect x="1837" y="1297" width="54" height="54" transform="rotate(0,1864,1324)"/><rect x="1837" y="1351" width="54" height="54" transform="rotate(0,1864,1378)"/><rect x="1837" y="1405" width="54" height="54" transform="rotate(0,1864,1432)"/><rect x="1837" y="1567" width="54" height="54" transform="rotate(0,1864,1594)"/><rect x="1837" y="1621" width="54" height="54" transform="rotate(0,1864,1648)"/><rect x="1837" y="1675" width="54" height="54" transform="rotate(0,1864,1702)"/><rect x="1837" y="1783" width="54" height="54" transform="rotate(0,1864,1810)"/></clipPath><clipPath id="clip-path-corners-square-color-0-0"><rect x="109" y="109" width="54" height="54" transform="rotate(0,136,136)"/><rect x="109" y="163" width="54" height="54" transform="rotate(0,136,190)"/><rect x="109" y="217" width="54" height="54" transform="rotate(0,136,244)"/><rect x="109" y="271" width="54" height="54" transform="rotate(0,136,298)"/><rect x="109" y="325" width="54" height="54" transform="rotate(0,136,352)"/><rect x="109" y="379" width="54" height="54" transform="rotate(0,136,406)"/><rect x="109" y="433" width="54" height="54" transform="rotate(0,136,460)"/><rect x="163" y="109" width="54" height="54" transform="rotate(0,190,136)"/><rect x="163" y="433" width="54" height="54" transform="rotate(0,190,460)"/><rect x="217" y="109" width="54" height="54" transform="rotate(0,244,136)"/><rect x="217" y="433" width="54" height="54" transform="rotate(0,244,460)"/><rect x="271" y="109" width="54" height="54" transform="rotate(0,298,136)"/><rect x="271" y="433" width="54" height="54" transform="rotate(0,298,460)"/><rect x="325" y="109" width="54" height="54" transform="rotate(0,352,136)"/><rect x="325" y="433" width="54" height="54" transform="rotate(0,352,460)"/><rect x="379" y="109" width="54" height="54" transform="rotate(0,406,136)"/><rect x="379" y="433" width="54" height="54" transform="rotate(0,406,460)"/><rect x="433" y="109" width="54" height="54" transform="rotate(0,460,136)"/><rect x="433" y="163" width="54" height="54" transform="rotate(0,460,190)"/><rect x="433" y="217" width="54" height="54" transform="rotate(0,460,244)"/><rect x="433" y="271" width="54" height="54" transform="rotate(0,460,298)"/><rect x="433" y="325" width="54" height="54" transform="rotate(0,460,352)"/><rect x="433" y="379" width="54" height="54" transform="rotate(0,460,406)"/><rect x="433" y="433" width="54" height="54" transform="rotate(0,460,460)"/></clipPath><clipPath id="clip-path-corners-dot-color-0-0"><rect x="217" y="217" width="54" height="54" transform="rotate(0,244,244)"/><rect x="217" y="271" width="54" height="54" transform="rotate(0,244,298)"/><rect x="217" y="325" width="54" height="54" transform="rotate(0,244,352)"/><rect x="271" y="217" width="54" height="54" transform="rotate(0,298,244)"/><rect x="271" y="271" width="54" height="54" transform="rotate(0,298,298)"/><rect x="271" y="325" width="54" height="54" transform="rotate(0,298,352)"/><rect x="325" y="217" width="54" height="54" transform="rotate(0,352,244)"/><rect x="325" y="271" width="54" height="54" transform="rotate(0,352,298)"/><rect x="325" y="325" width="54" height="54" transform="rotate(0,352,352)"/></clipPath><clipPath id="clip-path-corners-square-color-1-0"><rect x="1513" y="109" width="54" height="54" transform="rotate(0,1540,136)"/><rect x="1513" y="163" width="54" height="54" transform="rotate(0,1540,190)"/><rect x="1513" y="217" width="54" height="54" transform="rotate(0,1540,244)"/><rect x="1513" y="271" width="54" height="54" transform="rotate(0,1540,298)"/><rect x="1513" y="325" width="54" height="54" transform="rotate(0,1540,352)"/><rect x="1513" y="379" width="54" height="54" transform="rotate(0,1540,406)"/><rect x="1513" y="433" width="54" height="54" transform="rotate(0,1540,460)"/><rect x="1567" y="109" width="54" height="54" transform="rotate(0,1594,136)"/><rect x="1567" y="433" width="54" height="54" transform="rotate(0,1594,460)"/><rect x="1621" y="109" width="54" height="54" transform="rotate(0,1648,136)"/><rect x="1621" y="433" width="54" height="54" transform="rotate(0,1648,460)"/><rect x="1675" y="109" width="54" height="54" transform="rotate(0,1702,136)"/><rect x="1675" y="433" width="54" height="54" transform="rotate(0,1702,460)"/><rect x="1729" y="109" width="54" height="54" transform="rotate(0,1756,136)"/><rect x="1729" y="433" width="54" height="54" transform="rotate(0,1756,460)"/><rect x="1783" y="109" width="54" height="54" transform="rotate(0,1810,136)"/><rect x="1783" y="433" width="54" height="54" transform="rotate(0,1810,460)"/><rect x="1837" y="109" width="54" height="54" transform="rotate(0,1864,136)"/><rect x="1837" y="163" width="54" height="54" transform="rotate(0,1864,190)"/><rect x="1837" y="217" width="54" height="54" transform="rotate(0,1864,244)"/><rect x="1837" y="271" width="54" height="54" transform="rotate(0,1864,298)"/><rect x="1837" y="325" width="54" height="54" transform="rotate(0,1864,352)"/><rect x="1837" y="379" width="54" height="54" transform="rotate(0,1864,406)"/><rect x="1837" y="433" width="54" height="54" transform="rotate(0,1864,460)"/></clipPath><clipPath id="clip-path-corners-dot-color-1-0"><rect x="1621" y="217" width="54" height="54" transform="rotate(0,1648,244)"/><rect x="1621" y="271" width="54" height="54" transform="rotate(0,1648,298)"/><rect x="1621" y="325" width="54" height="54" transform="rotate(0,1648,352)"/><rect x="1675" y="217" width="54" height="54" transform="rotate(0,1702,244)"/><rect x="1675" y="271" width="54" height="54" transform="rotate(0,1702,298)"/><rect x="1675" y="325" width="54" height="54" transform="rotate(0,1702,352)"/><rect x="1729" y="217" width="54" height="54" transform="rotate(0,1756,244)"/><rect x="1729" y="271" width="54" height="54" transform="rotate(0,1756,298)"/><rect x="1729" y="325" width="54" height="54" transform="rotate(0,1756,352)"/></clipPath><clipPath id="clip-path-corners-square-color-0-1"><rect x="109" y="1513" width="54" height="54" transform="rotate(0,136,1540)"/><rect x="109" y="1567" width="54" height="54" transform="rotate(0,136,1594)"/><rect x="109" y="1621" width="54" height="54" transform="rotate(0,136,1648)"/><rect x="109" y="1675" width="54" height="54" transform="rotate(0,136,1702)"/><rect x="109" y="1729" width="54" height="54" transform="rotate(0,136,1756)"/><rect x="109" y="1783" width="54" height="54" transform="rotate(0,136,1810)"/><rect x="109" y="1837" width="54" height="54" transform="rotate(0,136,1864)"/><rect x="163" y="1513" width="54" height="54" transform="rotate(0,190,1540)"/><rect x="163" y="1837" width="54" height="54" transform="rotate(0,190,1864)"/><rect x="217" y="1513" width="54" height="54" transform="rotate(0,244,1540)"/><rect x="217" y="1837" width="54" height="54" transform="rotate(0,244,1864)"/><rect x="271" y="1513" width="54" height="54" transform="rotate(0,298,1540)"/><rect x="271" y="1837" width="54" height="54" transform="rotate(0,298,1864)"/><rect x="325" y="1513" width="54" height="54" transform="rotate(0,352,1540)"/><rect x="325" y="1837" width="54" height="54" transform="rotate(0,352,1864)"/><rect x="379" y="1513" width="54" height="54" transform="rotate(0,406,1540)"/><rect x="379" y="1837" width="54" height="54" transform="rotate(0,406,1864)"/><rect x="433" y="1513" width="54" height="54" transform="rotate(0,460,1540)"/><rect x="433" y="1567" width="54" height="54" transform="rotate(0,460,1594)"/><rect x="433" y="1621" width="54" height="54" transform="rotate(0,460,1648)"/><rect x="433" y="1675" width="54" height="54" transform="rotate(0,460,1702)"/><rect x="433" y="1729" width="54" height="54" transform="rotate(0,460,1756)"/><rect x="433" y="1783" width="54" height="54" transform="rotate(0,460,1810)"/><rect x="433" y="1837" width="54" height="54" transform="rotate(0,460,1864)"/></clipPath><clipPath id="clip-path-corners-dot-color-0-1"><rect x="217" y="1621" width="54" height="54" transform="rotate(0,244,1648)"/><rect x="217" y="1675" width="54" height="54" transform="rotate(0,244,1702)"/><rect x="217" y="1729" width="54" height="54" transform="rotate(0,244,1756)"/><rect x="271" y="1621" width="54" height="54" transform="rotate(0,298,1648)"/><rect x="271" y="1675" width="54" height="54" transform="rotate(0,298,1702)"/><rect x="271" y="1729" width="54" height="54" transform="rotate(0,298,1756)"/><rect x="325" y="1621" width="54" height="54" transform="rotate(0,352,1648)"/><rect x="325" y="1675" width="54" height="54" transform="rotate(0,352,1702)"/><rect x="325" y="1729" width="54" height="54" transform="rotate(0,352,1756)"/></clipPath></defs><rect x="0" y="0" height="2000" width="2000" clip-path="url('#clip-path-background-color')" fill="#ffffff"/><rect x="109" y="109" height="1782" width="1782" clip-path="url('#clip-path-dot-color')" fill="#000000"/><rect x="109" y="109" height="378" width="378" clip-path="url('#clip-path-corners-square-color-0-0')" fill="#000000"/><rect x="217" y="217" height="162" width="162" clip-path="url('#clip-path-corners-dot-color-0-0')" fill="#000000"/><rect x="1513" y="109" height="378" width="378" clip-path="url('#clip-path-corners-square-color-1-0')" fill="#000000"/><rect x="1621" y="217" height="162" width="162" clip-path="url('#clip-path-corners-dot-color-1-0')" fill="#000000"/><rect x="109" y="1513" height="378" width="378" clip-path="url('#clip-path-corners-square-color-0-1')" fill="#000000"/><rect x="217" y="1621" height="162" width="162" clip-path="url('#clip-path-corners-dot-color-0-1')" fill="#000000"/></svg>